<mxfile host="app.diagrams.net" modified="2023-02-18T02:11:10.873Z" agent="5.0 (Macintosh; Intel Mac OS X 10_15_7) AppleWebKit/537.36 (KHTML, like Gecko) Chrome/109.0.0.0 Safari/537.36" etag="spKbbdzMPmKpxHFblSQS" version="20.8.20" type="github">
  <diagram name="Page-1" id="5bFIFE7P2a4ww-F7kp4S">
    <mxGraphModel dx="4671" dy="926" grid="1" gridSize="10" guides="1" tooltips="1" connect="1" arrows="1" fold="1" page="1" pageScale="1" pageWidth="827" pageHeight="1169" math="0" shadow="0">
      <root>
        <mxCell id="0" />
        <mxCell id="1" parent="0" />
        <mxCell id="trhLgWfXly_DadddX9xE-12" style="edgeStyle=orthogonalEdgeStyle;rounded=0;orthogonalLoop=1;jettySize=auto;html=1;exitX=0.5;exitY=1;exitDx=0;exitDy=0;fontSize=22;" parent="1" source="trhLgWfXly_DadddX9xE-9" target="trhLgWfXly_DadddX9xE-10" edge="1">
          <mxGeometry relative="1" as="geometry" />
        </mxCell>
        <mxCell id="trhLgWfXly_DadddX9xE-13" style="edgeStyle=orthogonalEdgeStyle;rounded=0;orthogonalLoop=1;jettySize=auto;html=1;entryX=0.5;entryY=0;entryDx=0;entryDy=0;fontSize=22;" parent="1" source="trhLgWfXly_DadddX9xE-9" target="trhLgWfXly_DadddX9xE-11" edge="1">
          <mxGeometry relative="1" as="geometry" />
        </mxCell>
        <mxCell id="trhLgWfXly_DadddX9xE-42" style="edgeStyle=orthogonalEdgeStyle;rounded=0;orthogonalLoop=1;jettySize=auto;html=1;exitX=0;exitY=0.5;exitDx=0;exitDy=0;fontSize=22;" parent="1" source="trhLgWfXly_DadddX9xE-9" edge="1">
          <mxGeometry relative="1" as="geometry">
            <mxPoint x="-1880" y="200.33333333333337" as="targetPoint" />
          </mxGeometry>
        </mxCell>
        <mxCell id="trhLgWfXly_DadddX9xE-9" value="&lt;font style=&quot;font-size: 22px;&quot;&gt;Game&lt;/font&gt;" style="rounded=1;whiteSpace=wrap;html=1;fontSize=22;fillColor=#dae8fc;strokeColor=#6c8ebf;" parent="1" vertex="1">
          <mxGeometry x="-1720" y="160" width="160" height="80" as="geometry" />
        </mxCell>
        <mxCell id="trhLgWfXly_DadddX9xE-15" style="edgeStyle=orthogonalEdgeStyle;rounded=0;orthogonalLoop=1;jettySize=auto;html=1;exitX=0.5;exitY=1;exitDx=0;exitDy=0;fontSize=22;" parent="1" source="trhLgWfXly_DadddX9xE-10" target="trhLgWfXly_DadddX9xE-14" edge="1">
          <mxGeometry relative="1" as="geometry" />
        </mxCell>
        <mxCell id="trhLgWfXly_DadddX9xE-10" value="Menu" style="rounded=1;whiteSpace=wrap;html=1;fontSize=22;fillColor=#fff2cc;strokeColor=#d6b656;" parent="1" vertex="1">
          <mxGeometry x="-1880" y="320" width="160" height="80" as="geometry" />
        </mxCell>
        <mxCell id="trhLgWfXly_DadddX9xE-31" style="edgeStyle=orthogonalEdgeStyle;rounded=0;orthogonalLoop=1;jettySize=auto;html=1;exitX=0.5;exitY=1;exitDx=0;exitDy=0;fontSize=22;" parent="1" source="trhLgWfXly_DadddX9xE-11" target="trhLgWfXly_DadddX9xE-30" edge="1">
          <mxGeometry relative="1" as="geometry" />
        </mxCell>
        <mxCell id="trhLgWfXly_DadddX9xE-11" value="Levels" style="rounded=1;whiteSpace=wrap;html=1;fontSize=22;fillColor=#d5e8d4;strokeColor=#82b366;" parent="1" vertex="1">
          <mxGeometry x="-1600" y="320" width="200" height="80" as="geometry" />
        </mxCell>
        <mxCell id="trhLgWfXly_DadddX9xE-21" style="edgeStyle=orthogonalEdgeStyle;rounded=0;orthogonalLoop=1;jettySize=auto;html=1;exitX=0;exitY=0.5;exitDx=0;exitDy=0;fontSize=22;" parent="1" source="trhLgWfXly_DadddX9xE-14" target="trhLgWfXly_DadddX9xE-16" edge="1">
          <mxGeometry relative="1" as="geometry" />
        </mxCell>
        <mxCell id="trhLgWfXly_DadddX9xE-22" style="edgeStyle=orthogonalEdgeStyle;rounded=0;orthogonalLoop=1;jettySize=auto;html=1;exitX=0;exitY=0.5;exitDx=0;exitDy=0;fontSize=22;" parent="1" source="trhLgWfXly_DadddX9xE-14" target="trhLgWfXly_DadddX9xE-17" edge="1">
          <mxGeometry relative="1" as="geometry" />
        </mxCell>
        <mxCell id="trhLgWfXly_DadddX9xE-23" style="edgeStyle=orthogonalEdgeStyle;rounded=0;orthogonalLoop=1;jettySize=auto;html=1;exitX=0;exitY=0.5;exitDx=0;exitDy=0;entryX=1;entryY=0.5;entryDx=0;entryDy=0;fontSize=22;" parent="1" source="trhLgWfXly_DadddX9xE-14" target="trhLgWfXly_DadddX9xE-18" edge="1">
          <mxGeometry relative="1" as="geometry" />
        </mxCell>
        <mxCell id="trhLgWfXly_DadddX9xE-14" value="Options List" style="rounded=1;whiteSpace=wrap;html=1;fontSize=22;fillColor=#fff2cc;strokeColor=#d6b656;" parent="1" vertex="1">
          <mxGeometry x="-2160" y="400" width="160" height="80" as="geometry" />
        </mxCell>
        <mxCell id="trhLgWfXly_DadddX9xE-16" value="Text String" style="rounded=1;whiteSpace=wrap;html=1;fontSize=22;fillColor=#fff2cc;strokeColor=#d6b656;" parent="1" vertex="1">
          <mxGeometry x="-2410" y="360" width="130" height="80" as="geometry" />
        </mxCell>
        <mxCell id="trhLgWfXly_DadddX9xE-20" style="edgeStyle=orthogonalEdgeStyle;rounded=0;orthogonalLoop=1;jettySize=auto;html=1;exitX=0;exitY=0.5;exitDx=0;exitDy=0;fontSize=22;" parent="1" source="trhLgWfXly_DadddX9xE-17" target="trhLgWfXly_DadddX9xE-19" edge="1">
          <mxGeometry relative="1" as="geometry" />
        </mxCell>
        <mxCell id="trhLgWfXly_DadddX9xE-17" value="Style" style="rounded=1;whiteSpace=wrap;html=1;fontSize=22;fillColor=#fff2cc;strokeColor=#d6b656;" parent="1" vertex="1">
          <mxGeometry x="-2410" y="460" width="130" height="80" as="geometry" />
        </mxCell>
        <mxCell id="trhLgWfXly_DadddX9xE-18" value="Effect Function" style="rounded=1;whiteSpace=wrap;html=1;fontSize=22;fillColor=#b1ddf0;strokeColor=#10739e;" parent="1" vertex="1">
          <mxGeometry x="-2410" y="560" width="130" height="80" as="geometry" />
        </mxCell>
        <mxCell id="trhLgWfXly_DadddX9xE-27" style="edgeStyle=orthogonalEdgeStyle;rounded=0;orthogonalLoop=1;jettySize=auto;html=1;exitX=0;exitY=0.5;exitDx=0;exitDy=0;entryX=1;entryY=0.5;entryDx=0;entryDy=0;fontSize=22;" parent="1" source="trhLgWfXly_DadddX9xE-19" target="trhLgWfXly_DadddX9xE-25" edge="1">
          <mxGeometry relative="1" as="geometry" />
        </mxCell>
        <mxCell id="trhLgWfXly_DadddX9xE-28" style="edgeStyle=orthogonalEdgeStyle;rounded=0;orthogonalLoop=1;jettySize=auto;html=1;exitX=0;exitY=0.5;exitDx=0;exitDy=0;fontSize=22;" parent="1" source="trhLgWfXly_DadddX9xE-19" target="trhLgWfXly_DadddX9xE-24" edge="1">
          <mxGeometry relative="1" as="geometry" />
        </mxCell>
        <mxCell id="trhLgWfXly_DadddX9xE-29" style="edgeStyle=orthogonalEdgeStyle;rounded=0;orthogonalLoop=1;jettySize=auto;html=1;exitX=0;exitY=0.5;exitDx=0;exitDy=0;entryX=1;entryY=0.5;entryDx=0;entryDy=0;fontSize=22;" parent="1" source="trhLgWfXly_DadddX9xE-19" target="trhLgWfXly_DadddX9xE-26" edge="1">
          <mxGeometry relative="1" as="geometry" />
        </mxCell>
        <mxCell id="trhLgWfXly_DadddX9xE-19" value="Parameter List" style="rounded=1;whiteSpace=wrap;html=1;fontSize=22;fillColor=#fff2cc;strokeColor=#d6b656;" parent="1" vertex="1">
          <mxGeometry x="-2620" y="460" width="139" height="80" as="geometry" />
        </mxCell>
        <mxCell id="trhLgWfXly_DadddX9xE-24" value="Position" style="rounded=1;whiteSpace=wrap;html=1;fontSize=22;fillColor=#fff2cc;strokeColor=#d6b656;" parent="1" vertex="1">
          <mxGeometry x="-2800" y="440" width="120" height="60" as="geometry" />
        </mxCell>
        <mxCell id="trhLgWfXly_DadddX9xE-25" value="Type" style="rounded=1;whiteSpace=wrap;html=1;fontSize=22;fillColor=#fff2cc;strokeColor=#d6b656;" parent="1" vertex="1">
          <mxGeometry x="-2800" y="525" width="120" height="60" as="geometry" />
        </mxCell>
        <mxCell id="trhLgWfXly_DadddX9xE-26" value="Color" style="rounded=1;whiteSpace=wrap;html=1;fontSize=22;fillColor=#fff2cc;strokeColor=#d6b656;" parent="1" vertex="1">
          <mxGeometry x="-2800" y="360" width="120" height="60" as="geometry" />
        </mxCell>
        <mxCell id="trhLgWfXly_DadddX9xE-37" style="edgeStyle=orthogonalEdgeStyle;rounded=0;orthogonalLoop=1;jettySize=auto;html=1;exitX=1;exitY=0.5;exitDx=0;exitDy=0;entryX=0;entryY=0.5;entryDx=0;entryDy=0;fontSize=22;" parent="1" source="trhLgWfXly_DadddX9xE-30" target="trhLgWfXly_DadddX9xE-32" edge="1">
          <mxGeometry relative="1" as="geometry" />
        </mxCell>
        <mxCell id="trhLgWfXly_DadddX9xE-38" style="edgeStyle=orthogonalEdgeStyle;rounded=0;orthogonalLoop=1;jettySize=auto;html=1;exitX=1;exitY=0.5;exitDx=0;exitDy=0;entryX=0;entryY=0.5;entryDx=0;entryDy=0;fontSize=22;" parent="1" source="trhLgWfXly_DadddX9xE-30" target="trhLgWfXly_DadddX9xE-33" edge="1">
          <mxGeometry relative="1" as="geometry" />
        </mxCell>
        <mxCell id="trhLgWfXly_DadddX9xE-40" style="edgeStyle=orthogonalEdgeStyle;rounded=0;orthogonalLoop=1;jettySize=auto;html=1;exitX=1;exitY=0.5;exitDx=0;exitDy=0;entryX=0;entryY=0.5;entryDx=0;entryDy=0;fontSize=22;" parent="1" source="trhLgWfXly_DadddX9xE-30" target="trhLgWfXly_DadddX9xE-35" edge="1">
          <mxGeometry relative="1" as="geometry" />
        </mxCell>
        <mxCell id="trhLgWfXly_DadddX9xE-41" style="edgeStyle=orthogonalEdgeStyle;rounded=0;orthogonalLoop=1;jettySize=auto;html=1;exitX=1;exitY=0.5;exitDx=0;exitDy=0;entryX=0;entryY=0.5;entryDx=0;entryDy=0;fontSize=22;" parent="1" source="trhLgWfXly_DadddX9xE-30" target="trhLgWfXly_DadddX9xE-36" edge="1">
          <mxGeometry relative="1" as="geometry" />
        </mxCell>
        <mxCell id="trhLgWfXly_DadddX9xE-51" style="edgeStyle=orthogonalEdgeStyle;rounded=0;orthogonalLoop=1;jettySize=auto;html=1;exitX=0.5;exitY=1;exitDx=0;exitDy=0;entryX=0.5;entryY=0;entryDx=0;entryDy=0;fontSize=22;" parent="1" source="trhLgWfXly_DadddX9xE-30" target="trhLgWfXly_DadddX9xE-34" edge="1">
          <mxGeometry relative="1" as="geometry" />
        </mxCell>
        <mxCell id="_1f17MS2EXYu9Ie10YHu-11" style="edgeStyle=orthogonalEdgeStyle;rounded=0;orthogonalLoop=1;jettySize=auto;html=1;exitX=1;exitY=0.5;exitDx=0;exitDy=0;entryX=0;entryY=0.5;entryDx=0;entryDy=0;" edge="1" parent="1" source="trhLgWfXly_DadddX9xE-30" target="_1f17MS2EXYu9Ie10YHu-9">
          <mxGeometry relative="1" as="geometry" />
        </mxCell>
        <mxCell id="trhLgWfXly_DadddX9xE-30" value="Level List" style="rounded=1;whiteSpace=wrap;html=1;fontSize=22;fillColor=#d5e8d4;strokeColor=#82b366;" parent="1" vertex="1">
          <mxGeometry x="-1585" y="460" width="170" height="80" as="geometry" />
        </mxCell>
        <mxCell id="trhLgWfXly_DadddX9xE-32" value="#ID int" style="rounded=1;whiteSpace=wrap;html=1;fontSize=22;fillColor=#d5e8d4;strokeColor=#82b366;" parent="1" vertex="1">
          <mxGeometry x="-1320" y="400" width="120" height="60" as="geometry" />
        </mxCell>
        <mxCell id="trhLgWfXly_DadddX9xE-58" style="edgeStyle=orthogonalEdgeStyle;rounded=0;orthogonalLoop=1;jettySize=auto;html=1;exitX=1;exitY=0.5;exitDx=0;exitDy=0;fontSize=22;" parent="1" source="trhLgWfXly_DadddX9xE-33" target="trhLgWfXly_DadddX9xE-52" edge="1">
          <mxGeometry relative="1" as="geometry" />
        </mxCell>
        <mxCell id="trhLgWfXly_DadddX9xE-63" style="edgeStyle=orthogonalEdgeStyle;rounded=0;orthogonalLoop=1;jettySize=auto;html=1;exitX=1;exitY=0.5;exitDx=0;exitDy=0;entryX=0.5;entryY=1;entryDx=0;entryDy=0;fontSize=22;" parent="1" source="trhLgWfXly_DadddX9xE-33" target="trhLgWfXly_DadddX9xE-50" edge="1">
          <mxGeometry relative="1" as="geometry">
            <Array as="points">
              <mxPoint x="-1180" y="510" />
              <mxPoint x="-1180" y="440" />
              <mxPoint x="-1090" y="440" />
            </Array>
          </mxGeometry>
        </mxCell>
        <mxCell id="trhLgWfXly_DadddX9xE-33" value="Entity List" style="rounded=1;whiteSpace=wrap;html=1;fontSize=22;fillColor=#dae8fc;strokeColor=#6c8ebf;" parent="1" vertex="1">
          <mxGeometry x="-1320" y="480" width="120" height="60" as="geometry" />
        </mxCell>
        <mxCell id="trhLgWfXly_DadddX9xE-34" value="List Boundaries" style="rounded=1;whiteSpace=wrap;html=1;fontSize=22;fillColor=#d5e8d4;strokeColor=#82b366;" parent="1" vertex="1">
          <mxGeometry x="-1560" y="630" width="120" height="60" as="geometry" />
        </mxCell>
        <mxCell id="trhLgWfXly_DadddX9xE-35" value="Timer" style="rounded=1;whiteSpace=wrap;html=1;fontSize=22;fillColor=#d5e8d4;strokeColor=#82b366;" parent="1" vertex="1">
          <mxGeometry x="-1320" y="550" width="120" height="60" as="geometry" />
        </mxCell>
        <mxCell id="trhLgWfXly_DadddX9xE-36" value="State" style="rounded=1;whiteSpace=wrap;html=1;fontSize=22;fillColor=#dae8fc;strokeColor=#6c8ebf;" parent="1" vertex="1">
          <mxGeometry x="-1320" y="620" width="120" height="60" as="geometry" />
        </mxCell>
        <mxCell id="trhLgWfXly_DadddX9xE-47" style="edgeStyle=orthogonalEdgeStyle;rounded=0;orthogonalLoop=1;jettySize=auto;html=1;exitX=0;exitY=0.5;exitDx=0;exitDy=0;fontSize=22;" parent="1" source="trhLgWfXly_DadddX9xE-43" target="trhLgWfXly_DadddX9xE-46" edge="1">
          <mxGeometry relative="1" as="geometry" />
        </mxCell>
        <mxCell id="trhLgWfXly_DadddX9xE-48" style="edgeStyle=orthogonalEdgeStyle;rounded=0;orthogonalLoop=1;jettySize=auto;html=1;exitX=0;exitY=0.5;exitDx=0;exitDy=0;fontSize=22;" parent="1" source="trhLgWfXly_DadddX9xE-43" target="trhLgWfXly_DadddX9xE-45" edge="1">
          <mxGeometry relative="1" as="geometry" />
        </mxCell>
        <mxCell id="trhLgWfXly_DadddX9xE-43" value="Player" style="rounded=1;whiteSpace=wrap;html=1;fontSize=22;fillColor=#b0e3e6;strokeColor=#0e8088;" parent="1" vertex="1">
          <mxGeometry x="-2000" y="170" width="120" height="60" as="geometry" />
        </mxCell>
        <mxCell id="trhLgWfXly_DadddX9xE-45" value="ID" style="rounded=1;whiteSpace=wrap;html=1;fontSize=22;fillColor=#b0e3e6;strokeColor=#0e8088;" parent="1" vertex="1">
          <mxGeometry x="-2160" y="120" width="120" height="60" as="geometry" />
        </mxCell>
        <mxCell id="trhLgWfXly_DadddX9xE-46" value="Score(s)" style="rounded=1;whiteSpace=wrap;html=1;fontSize=22;fillColor=#b0e3e6;strokeColor=#0e8088;" parent="1" vertex="1">
          <mxGeometry x="-2160" y="200" width="120" height="60" as="geometry" />
        </mxCell>
        <mxCell id="_1f17MS2EXYu9Ie10YHu-5" style="edgeStyle=orthogonalEdgeStyle;rounded=0;orthogonalLoop=1;jettySize=auto;html=1;exitX=1;exitY=0.5;exitDx=0;exitDy=0;entryX=0;entryY=0.5;entryDx=0;entryDy=0;" edge="1" parent="1" source="trhLgWfXly_DadddX9xE-50" target="_1f17MS2EXYu9Ie10YHu-4">
          <mxGeometry relative="1" as="geometry" />
        </mxCell>
        <mxCell id="_1f17MS2EXYu9Ie10YHu-6" style="edgeStyle=orthogonalEdgeStyle;rounded=0;orthogonalLoop=1;jettySize=auto;html=1;exitX=0.5;exitY=0;exitDx=0;exitDy=0;entryX=0.5;entryY=1;entryDx=0;entryDy=0;" edge="1" parent="1" source="trhLgWfXly_DadddX9xE-50" target="_1f17MS2EXYu9Ie10YHu-1">
          <mxGeometry relative="1" as="geometry" />
        </mxCell>
        <mxCell id="trhLgWfXly_DadddX9xE-50" value="Type" style="rounded=1;whiteSpace=wrap;html=1;fontSize=22;fillColor=#dae8fc;strokeColor=#6c8ebf;" parent="1" vertex="1">
          <mxGeometry x="-1150" y="230" width="120" height="60" as="geometry" />
        </mxCell>
        <mxCell id="trhLgWfXly_DadddX9xE-60" style="edgeStyle=orthogonalEdgeStyle;rounded=0;orthogonalLoop=1;jettySize=auto;html=1;exitX=1;exitY=0.5;exitDx=0;exitDy=0;entryX=0;entryY=0.5;entryDx=0;entryDy=0;fontSize=22;" parent="1" source="trhLgWfXly_DadddX9xE-52" target="trhLgWfXly_DadddX9xE-56" edge="1">
          <mxGeometry relative="1" as="geometry" />
        </mxCell>
        <mxCell id="trhLgWfXly_DadddX9xE-61" style="edgeStyle=orthogonalEdgeStyle;rounded=0;orthogonalLoop=1;jettySize=auto;html=1;exitX=1;exitY=0.5;exitDx=0;exitDy=0;fontSize=22;" parent="1" source="trhLgWfXly_DadddX9xE-52" target="trhLgWfXly_DadddX9xE-53" edge="1">
          <mxGeometry relative="1" as="geometry" />
        </mxCell>
        <mxCell id="trhLgWfXly_DadddX9xE-62" style="edgeStyle=orthogonalEdgeStyle;rounded=0;orthogonalLoop=1;jettySize=auto;html=1;exitX=1;exitY=0.5;exitDx=0;exitDy=0;entryX=0;entryY=0.25;entryDx=0;entryDy=0;fontSize=22;" parent="1" source="trhLgWfXly_DadddX9xE-52" target="trhLgWfXly_DadddX9xE-57" edge="1">
          <mxGeometry relative="1" as="geometry" />
        </mxCell>
        <mxCell id="trhLgWfXly_DadddX9xE-52" value="Position" style="rounded=1;whiteSpace=wrap;html=1;fontSize=22;fillColor=#f8cecc;strokeColor=#b85450;" parent="1" vertex="1">
          <mxGeometry x="-1160" y="480" width="120" height="60" as="geometry" />
        </mxCell>
        <mxCell id="trhLgWfXly_DadddX9xE-53" value="Coos" style="rounded=1;whiteSpace=wrap;html=1;fontSize=22;fillColor=#f8cecc;strokeColor=#b85450;" parent="1" vertex="1">
          <mxGeometry x="-1000" y="450" width="120" height="60" as="geometry" />
        </mxCell>
        <mxCell id="trhLgWfXly_DadddX9xE-56" value="Rotation" style="rounded=1;whiteSpace=wrap;html=1;fontSize=22;fillColor=#f8cecc;strokeColor=#b85450;" parent="1" vertex="1">
          <mxGeometry x="-1000" y="380" width="120" height="60" as="geometry" />
        </mxCell>
        <mxCell id="trhLgWfXly_DadddX9xE-57" value="Acceleretion" style="rounded=1;whiteSpace=wrap;html=1;fontSize=22;fillColor=#f8cecc;strokeColor=#b85450;" parent="1" vertex="1">
          <mxGeometry x="-1000" y="524.5" width="120" height="60" as="geometry" />
        </mxCell>
        <mxCell id="_1f17MS2EXYu9Ie10YHu-34" style="edgeStyle=orthogonalEdgeStyle;rounded=0;orthogonalLoop=1;jettySize=auto;html=1;exitX=1;exitY=0.5;exitDx=0;exitDy=0;entryX=0;entryY=0.5;entryDx=0;entryDy=0;" edge="1" parent="1" source="_1f17MS2EXYu9Ie10YHu-1" target="_1f17MS2EXYu9Ie10YHu-25">
          <mxGeometry relative="1" as="geometry" />
        </mxCell>
        <mxCell id="_1f17MS2EXYu9Ie10YHu-35" style="edgeStyle=orthogonalEdgeStyle;rounded=0;orthogonalLoop=1;jettySize=auto;html=1;exitX=1;exitY=0.5;exitDx=0;exitDy=0;entryX=0;entryY=0.5;entryDx=0;entryDy=0;" edge="1" parent="1" source="_1f17MS2EXYu9Ie10YHu-1" target="_1f17MS2EXYu9Ie10YHu-31">
          <mxGeometry relative="1" as="geometry">
            <Array as="points">
              <mxPoint x="-975" y="150" />
              <mxPoint x="-975" y="210" />
              <mxPoint x="-860" y="210" />
              <mxPoint x="-860" y="230" />
            </Array>
          </mxGeometry>
        </mxCell>
        <mxCell id="_1f17MS2EXYu9Ie10YHu-1" value="Behavior" style="rounded=1;whiteSpace=wrap;html=1;fillColor=#e1d5e7;strokeColor=#9673a6;" vertex="1" parent="1">
          <mxGeometry x="-1240" y="120" width="120" height="60" as="geometry" />
        </mxCell>
        <mxCell id="_1f17MS2EXYu9Ie10YHu-4" value="Player,&lt;br&gt;Guard,&lt;br&gt;NPC?" style="rounded=0;whiteSpace=wrap;html=1;fillColor=#dae8fc;strokeColor=#6c8ebf;" vertex="1" parent="1">
          <mxGeometry x="-1020" y="230" width="120" height="60" as="geometry" />
        </mxCell>
        <mxCell id="_1f17MS2EXYu9Ie10YHu-38" style="edgeStyle=orthogonalEdgeStyle;rounded=0;orthogonalLoop=1;jettySize=auto;html=1;exitX=1;exitY=0.5;exitDx=0;exitDy=0;entryX=0;entryY=0.5;entryDx=0;entryDy=0;" edge="1" parent="1" source="_1f17MS2EXYu9Ie10YHu-9" target="_1f17MS2EXYu9Ie10YHu-36">
          <mxGeometry relative="1" as="geometry" />
        </mxCell>
        <mxCell id="_1f17MS2EXYu9Ie10YHu-39" style="edgeStyle=orthogonalEdgeStyle;rounded=0;orthogonalLoop=1;jettySize=auto;html=1;exitX=1;exitY=0.5;exitDx=0;exitDy=0;entryX=0;entryY=0.5;entryDx=0;entryDy=0;" edge="1" parent="1" source="_1f17MS2EXYu9Ie10YHu-9" target="_1f17MS2EXYu9Ie10YHu-37">
          <mxGeometry relative="1" as="geometry">
            <Array as="points">
              <mxPoint x="-1180" y="720" />
              <mxPoint x="-1180" y="740" />
            </Array>
          </mxGeometry>
        </mxCell>
        <mxCell id="_1f17MS2EXYu9Ie10YHu-9" value="Score" style="rounded=1;whiteSpace=wrap;html=1;fontSize=22;fillColor=#b0e3e6;strokeColor=#0e8088;" vertex="1" parent="1">
          <mxGeometry x="-1320" y="690" width="120" height="60" as="geometry" />
        </mxCell>
        <mxCell id="_1f17MS2EXYu9Ie10YHu-12" value="" style="rounded=0;whiteSpace=wrap;html=1;" vertex="1" parent="1">
          <mxGeometry x="-2160" y="790" width="560" height="210" as="geometry" />
        </mxCell>
        <mxCell id="_1f17MS2EXYu9Ie10YHu-13" value="" style="rounded=0;whiteSpace=wrap;html=1;fillColor=#000000;" vertex="1" parent="1">
          <mxGeometry x="-2160" y="940" width="120" height="60" as="geometry" />
        </mxCell>
        <mxCell id="_1f17MS2EXYu9Ie10YHu-14" value="" style="rounded=0;whiteSpace=wrap;html=1;fillColor=#000000;" vertex="1" parent="1">
          <mxGeometry x="-2000" y="870" width="70" height="130" as="geometry" />
        </mxCell>
        <mxCell id="_1f17MS2EXYu9Ie10YHu-15" value="" style="rounded=0;whiteSpace=wrap;html=1;fillColor=#000000;" vertex="1" parent="1">
          <mxGeometry x="-2160" y="790" width="120" height="60" as="geometry" />
        </mxCell>
        <mxCell id="_1f17MS2EXYu9Ie10YHu-16" value="" style="rounded=0;whiteSpace=wrap;html=1;fillColor=#000000;" vertex="1" parent="1">
          <mxGeometry x="-2090" y="790" width="50" height="110" as="geometry" />
        </mxCell>
        <mxCell id="_1f17MS2EXYu9Ie10YHu-17" value="" style="ellipse;whiteSpace=wrap;html=1;fillColor=#e51400;fontColor=#ffffff;strokeColor=#B20000;" vertex="1" parent="1">
          <mxGeometry x="-2000" y="870" width="10" height="10" as="geometry" />
        </mxCell>
        <mxCell id="_1f17MS2EXYu9Ie10YHu-19" value="" style="ellipse;whiteSpace=wrap;html=1;fillColor=#e51400;fontColor=#ffffff;strokeColor=#B20000;" vertex="1" parent="1">
          <mxGeometry x="-1940" y="990" width="10" height="10" as="geometry" />
        </mxCell>
        <mxCell id="_1f17MS2EXYu9Ie10YHu-20" value="" style="rounded=0;whiteSpace=wrap;html=1;fillColor=#000000;" vertex="1" parent="1">
          <mxGeometry x="-1890" y="790" width="80" height="20" as="geometry" />
        </mxCell>
        <mxCell id="_1f17MS2EXYu9Ie10YHu-21" value="" style="rounded=0;whiteSpace=wrap;html=1;fillColor=#000000;" vertex="1" parent="1">
          <mxGeometry x="-1770" y="870" width="70" height="130" as="geometry" />
        </mxCell>
        <mxCell id="_1f17MS2EXYu9Ie10YHu-22" value="" style="triangle;whiteSpace=wrap;html=1;fillColor=#1ba1e2;rotation=90;fontColor=#ffffff;strokeColor=#006EAF;" vertex="1" parent="1">
          <mxGeometry x="-1745" y="840" width="20" height="30" as="geometry" />
        </mxCell>
        <mxCell id="_1f17MS2EXYu9Ie10YHu-29" style="edgeStyle=orthogonalEdgeStyle;rounded=0;orthogonalLoop=1;jettySize=auto;html=1;exitX=1;exitY=0.5;exitDx=0;exitDy=0;entryX=0;entryY=0.5;entryDx=0;entryDy=0;" edge="1" parent="1" source="_1f17MS2EXYu9Ie10YHu-25" target="_1f17MS2EXYu9Ie10YHu-27">
          <mxGeometry relative="1" as="geometry" />
        </mxCell>
        <mxCell id="_1f17MS2EXYu9Ie10YHu-30" style="edgeStyle=orthogonalEdgeStyle;rounded=0;orthogonalLoop=1;jettySize=auto;html=1;exitX=1;exitY=0.5;exitDx=0;exitDy=0;entryX=0;entryY=0.5;entryDx=0;entryDy=0;" edge="1" parent="1" source="_1f17MS2EXYu9Ie10YHu-25" target="_1f17MS2EXYu9Ie10YHu-28">
          <mxGeometry relative="1" as="geometry">
            <Array as="points">
              <mxPoint x="-700" y="70" />
              <mxPoint x="-700" y="140" />
            </Array>
          </mxGeometry>
        </mxCell>
        <mxCell id="_1f17MS2EXYu9Ie10YHu-25" value="Player" style="rounded=1;whiteSpace=wrap;html=1;fontSize=22;fillColor=#e1d5e7;strokeColor=#9673a6;" vertex="1" parent="1">
          <mxGeometry x="-830" y="40" width="120" height="60" as="geometry" />
        </mxCell>
        <mxCell id="_1f17MS2EXYu9Ie10YHu-27" value="Grapple" style="rounded=1;whiteSpace=wrap;html=1;fontSize=22;fillColor=#e1d5e7;strokeColor=#9673a6;" vertex="1" parent="1">
          <mxGeometry x="-680" y="40" width="120" height="60" as="geometry" />
        </mxCell>
        <mxCell id="_1f17MS2EXYu9Ie10YHu-28" value="Tiredness" style="rounded=1;whiteSpace=wrap;html=1;fontSize=22;fillColor=#e1d5e7;strokeColor=#9673a6;" vertex="1" parent="1">
          <mxGeometry x="-680" y="110" width="120" height="60" as="geometry" />
        </mxCell>
        <mxCell id="_1f17MS2EXYu9Ie10YHu-33" style="edgeStyle=orthogonalEdgeStyle;rounded=0;orthogonalLoop=1;jettySize=auto;html=1;exitX=1;exitY=0.5;exitDx=0;exitDy=0;entryX=0;entryY=0.5;entryDx=0;entryDy=0;" edge="1" parent="1" source="_1f17MS2EXYu9Ie10YHu-31" target="_1f17MS2EXYu9Ie10YHu-32">
          <mxGeometry relative="1" as="geometry" />
        </mxCell>
        <mxCell id="_1f17MS2EXYu9Ie10YHu-31" value="Guard" style="rounded=1;whiteSpace=wrap;html=1;fontSize=22;fillColor=#ffe6cc;strokeColor=#d79b00;" vertex="1" parent="1">
          <mxGeometry x="-830" y="200" width="120" height="60" as="geometry" />
        </mxCell>
        <mxCell id="_1f17MS2EXYu9Ie10YHu-32" value="Vision Cone" style="rounded=1;whiteSpace=wrap;html=1;fontSize=22;fillColor=#ffe6cc;strokeColor=#d79b00;" vertex="1" parent="1">
          <mxGeometry x="-680" y="200" width="120" height="60" as="geometry" />
        </mxCell>
        <mxCell id="_1f17MS2EXYu9Ie10YHu-36" value="Medals" style="rounded=1;whiteSpace=wrap;html=1;fontSize=22;fillColor=#b0e3e6;strokeColor=#0e8088;" vertex="1" parent="1">
          <mxGeometry x="-1170" y="640" width="120" height="60" as="geometry" />
        </mxCell>
        <mxCell id="_1f17MS2EXYu9Ie10YHu-37" value="Best" style="rounded=1;whiteSpace=wrap;html=1;fontSize=22;fillColor=#b0e3e6;strokeColor=#0e8088;" vertex="1" parent="1">
          <mxGeometry x="-1170" y="710" width="120" height="60" as="geometry" />
        </mxCell>
      </root>
    </mxGraphModel>
  </diagram>
</mxfile>
